<?xml version="1.0" encoding="UTF-8"?>
<svg id="a" data-name="Default" xmlns="http://www.w3.org/2000/svg" width="1064.935" height="792" viewBox="0 0 1064.935 792">
  <path d="M115.285,285.576c-40.621,33.824-67.566,81.97-80.837,144.438-12.299,57.775-7.283,103.251,15.051,136.427,22.495,33.014,59.475,49.522,110.938,49.522,41.592,0,78.288-12.219,110.089-36.656,31.801-24.437,55.064-56.157,69.791-95.159h-74.04c-8.901,18.449-18.126,32.286-27.674,41.511-17.478,17.155-39.326,25.732-65.543,25.732-25.57,0-44.505-9.993-56.804-29.98-12.299-19.987-14.161-50.048-5.583-90.183,8.415-40.135,22.819-71.167,43.21-93.096,20.391-21.929,44.181-32.893,71.369-32.893,26.703,0,45.152,7.768,55.348,23.304,5.826,8.739,9.306,21.686,10.438,38.84h74.768c3.722-22.333.243-44.586-10.438-66.757-19.42-39.488-59.232-59.232-119.435-59.232-44.99,0-85.206,14.727-120.648,44.181Z" fill="#fff"/>
  <path d="M748.879,456.573c-5.32,3.323-10.657,6.618-16.01,9.887-22.848,13.951-45.991,27.416-69.388,40.429-.416,1.959-8.749,39.308-9.165,41.267-4.095,19.284-8.19,38.569-12.285,57.853h251.977c4.531-21.443,9.063-42.886,13.594-64.329h-177.21c3.087-14.521,6.173-29.041,9.26-43.562.436-2.051,8.79-39.493,9.226-41.544Z" fill="#fff"/>
  <polyline points="761.001 388.262 790.656 253.501 715.889 253.501 669.769 465.939" fill="#fff"/>
  <path d="M651.958,275.865c-17.397-18.449-44.06-27.674-79.987-27.674h-155.847c-25.327,119.273-50.654,238.545-75.982,357.818h74.282c9.063-42.886,18.125-85.773,27.188-128.659h75.982c39.65,0,72.017-8.739,97.101-26.217,25.084-17.478,42.158-47.337,51.221-89.576,8.092-38.679,3.439-67.243-13.958-85.692ZM590.02,362.043c-3.884,18.611-11.652,32.205-23.304,40.783-11.652,8.577-26.298,12.866-43.938,12.866h-69.67c7.444-35.118,14.889-70.237,22.333-105.355h69.67c17.64,0,30.546,3.965,38.719,11.895,8.173,7.93,10.236,21.2,6.19,39.811Z" fill="#fff"/>
  <path d="M461.429,198.312c785.964-214.776,328.221,296.488-146.505,480.528-3.413,1.323-5.992,2.904-2.961,6.321,2.631,2.965,5.109,2.168,8.256,1.095C1037.528,423.86,1428.022-103.193,458.719,192.073c-2.213.87-5.309,1.944-3.767,4.963,1.404,2.748,4.271,1.879,6.476,1.276Z" fill="#fff"/>
</svg>